<svg width="1081" height="1080" viewBox="0 0 1081 1080" fill="none" xmlns="http://www.w3.org/2000/svg">
<path d="M756.457 653.713C759.503 653.667 762.418 654.75 764.603 656.768C766.787 658.786 768.099 661.605 768.294 664.645C768.491 667.687 767.529 670.679 765.815 673.141C760.117 680.501 754.553 686.21 748.563 691.904C693.919 742.656 617.337 765.05 544.5 764.996C543.233 764.998 541.971 764.994 540.714 764.984C469.069 764.591 393.988 742.077 340.384 691.974C334.407 686.258 328.86 680.524 323.185 673.141C321.484 670.676 320.528 667.687 320.727 664.649C320.924 661.613 322.234 658.799 324.414 656.786C326.594 654.772 329.503 653.69 332.545 653.734C335.589 653.777 338.493 654.967 340.815 656.858C345.581 660.209 352.332 664.482 358.403 667.778C414.717 698.104 478.047 708.356 541.166 708.986C542.272 708.995 543.383 709.001 544.5 709.003C608.756 709.034 673.471 698.905 730.649 667.848C736.708 664.529 743.442 660.232 748.185 656.858C750.503 654.954 753.409 653.759 756.457 653.713ZM600.999 596.154H554.999V339.115H600.999V596.154ZM535.999 596.152H489.999V339.118H535.999V596.152ZM471 596.141H427V573.395C411.733 587.56 391.803 596.134 370 596.134C321.952 596.134 293 554.496 293 503.134C293 451.772 321.952 410.135 370 410.134C391.802 410.135 411.733 418.707 427 432.872V410.119H471V596.141ZM105 339.126C105.006 339.126 160.202 338.537 191 340.937C229.5 343.937 261.5 372.437 262.5 407.937C263.3 436.337 242.833 455.77 232.5 461.937C241.501 461.938 279 478.938 277 529.937C275 580.937 220.5 596.126 202 596.126H105V339.126ZM784 596.109H740V572.61C729.712 582.856 710.954 596.729 687 596.099C632.001 594.652 618 552.602 618 537.602V410.099H662V522.102C662 534.102 671.401 555.602 701 555.602C729.499 555.602 738 531.103 738 524.602V410.102H740V410.093H784V596.109ZM883.545 317.159C886.138 317.132 888.739 318.107 890.718 320.085L961.78 391.148C968.615 397.983 968.615 409.065 961.78 415.9C954.945 422.735 943.863 422.735 937.028 415.9L901.999 380.871V516.089C901.999 536.524 918.565 553.089 938.999 553.089H975.999V596.089H938.999C894.816 596.089 858.999 560.272 858.999 516.089V386.921L830.021 415.9C823.186 422.735 812.105 422.735 805.27 415.9C798.435 409.065 798.435 397.983 805.27 391.148L876.332 320.085C878.321 318.097 880.939 317.122 883.545 317.159ZM383.5 451.134C356.715 451.135 340 474.64 340 503.634C340 532.629 356.715 556.134 383.5 556.134C410.285 556.134 427 532.629 427 503.634C427 474.64 410.285 451.135 383.5 451.134ZM152.5 555.437H199.5C209 555.437 228.2 544.636 229 523.437C230 496.937 206.5 486.437 195 486.437H152.5V555.437ZM152 444.937H185C194 444.937 214 435.652 214 414.437C214 388.438 193.5 380.937 185.5 380.937H152V444.937Z" fill="url(#paint0_linear_9_14)"/>
<defs>
<linearGradient id="paint0_linear_9_14" x1="56.111" y1="479.752" x2="1090.68" y2="484.143" gradientUnits="userSpaceOnUse">
<stop stop-color="#1BBFE9"/>
<stop offset="1" stop-color="#1964EF"/>
</linearGradient>
</defs>
</svg>
